<?xml version="1.0"?>
<svg xmlns="http://www.w3.org/2000/svg" viewBox="0 0 50 50">
    <path style="line-height:normal;text-indent:0;text-align:start;text-decoration-line:none;text-decoration-style:solid;text-decoration-color:#000;text-transform:none;block-progression:tb;isolation:auto;mix-blend-mode:normal" d="M 40.449219 3 A 1.0001 1.0001 0 0 0 40.177734 3.0292969 L 23.763672 7.0292969 A 1.0001 1.0001 0 0 0 23.072266 7.6289062 L 21.322266 12 L 16 12 A 1.0001 1.0001 0 0 0 15.265625 12.322266 L 3.265625 25.322266 A 1.0001 1.0001 0 0 0 3.3105469 26.724609 L 15.892578 38.724609 A 1.0001 1.0001 0 0 0 16.582031 39 L 22.322266 39 L 24.072266 43.371094 A 1.0001 1.0001 0 0 0 24.830078 43.986328 L 42.289062 46.986328 A 1.0001 1.0001 0 0 0 43.435547 46.212891 L 46.976562 29.984375 A 1.0001 1.0001 0 0 0 46.853516 29.25 L 44.525391 25.429688 L 46.902344 20.429688 A 1.0001 1.0001 0 0 0 46.943359 19.669922 L 41.357422 3.6699219 A 1.0001 1.0001 0 0 0 40.449219 3 z M 39.769531 5.1855469 L 44.919922 19.941406 L 43.445312 23.046875 L 39.955078 11.705078 A 1.0001 1.0001 0 0 0 38.972656 11 A 1.0001 1.0001 0 0 0 38.105469 11.552734 L 31.105469 25.552734 A 1.0001 1.0001 0 0 0 31.164062 26.548828 L 39.164062 38.757812 A 1.0001 1.0001 0 0 0 40.974609 38.429688 L 43.453125 27.513672 L 44.9375 29.949219 L 41.685547 44.851562 L 25.720703 42.109375 L 24.601562 39.3125 L 36.181641 41.462891 A 1.0001 1.0001 0 0 0 37.195312 39.921875 L 28.830078 27.443359 A 1.0001 1.0001 0 0 0 28 27 L 12 27 A 1.0001 1.0001 0 0 0 11.328125 28.740234 L 20.414062 37 L 16.982422 37 L 5.4023438 25.955078 L 16.4375 14 L 19.740234 14 L 11.259766 23.328125 A 1.0001 1.0001 0 0 0 12 25 L 28 25 A 1.0001 1.0001 0 0 0 28.894531 24.447266 L 35.894531 10.447266 A 1.0001 1.0001 0 0 0 35.033203 9 A 1.0001 1.0001 0 0 0 34.775391 9.0253906 L 23.638672 11.595703 L 24.736328 8.8496094 L 39.769531 5.1855469 z M 33.15625 11.451172 L 27.382812 23 L 14.259766 23 L 22.529297 13.904297 L 33.15625 11.451172 z M 38.779297 14.679688 L 41.964844 25.039062 L 39.546875 35.693359 L 33.152344 25.933594 L 38.779297 14.679688 z M 14.585938 29 L 27.466797 29 L 34.210938 39.0625 L 23.462891 37.068359 L 14.585938 29 z" font-weight="400" font-family="sans-serif" white-space="normal" overflow="visible"/>
</svg>
